<?xml version="1.0" encoding="UTF-8"?>
<svg xmlns="http://www.w3.org/2000/svg" xmlns:xlink="http://www.w3.org/1999/xlink" width="450pt" height="232.34pt" viewBox="0 0 450 232.34" version="1.1">
<defs>
<clipPath id="clip1">
  <path d="M 253 114 L 304 114 L 304 232.339844 L 253 232.339844 Z M 253 114 "/>
</clipPath>
</defs>
<g id="surface1">
<path style=" stroke:none;fill-rule:nonzero;fill:rgb(83.099365%,11.399841%,32.899475%);fill-opacity:1;" d="M 287.078125 109.425781 C 258.5 72.75 230.480469 36.789063 202.464844 0.828125 C 202.605469 0.550781 202.742188 0.277344 202.878906 0 C 239.566406 4.40625 276.253906 8.8125 313.503906 13.285156 C 304.6875 45.351563 296 76.960938 287.078125 109.425781 "/>
<path style=" stroke:none;fill-rule:nonzero;fill:rgb(88.198853%,7.099915%,43.099976%);fill-opacity:1;" d="M 291.492188 110.269531 C 300.359375 78.058594 309.117188 46.25 318.121094 13.539063 C 345.390625 51.605469 372.121094 88.921875 398.847656 126.234375 C 398.710938 126.519531 398.570313 126.804688 398.429688 127.089844 C 362.980469 121.511719 327.53125 115.9375 291.492188 110.269531 "/>
<path style=" stroke:none;fill-rule:nonzero;fill:rgb(83.099365%,11.399841%,32.899475%);fill-opacity:1;" d="M 291.734375 114.964844 C 326.320313 120.496094 360.199219 125.914063 394.074219 131.328125 C 394.136719 131.671875 394.203125 132.011719 394.265625 132.351563 C 364.96875 147.035156 335.671875 161.71875 305.839844 176.671875 C 301.136719 156.097656 296.535156 135.96875 291.734375 114.964844 "/>
<g clip-path="url(#clip1)" clip-rule="nonzero">
<path style=" stroke:none;fill-rule:nonzero;fill:rgb(61.999512%,10.598755%,23.098755%);fill-opacity:1;" d="M 253.460938 231.949219 C 264.460938 193.164063 275.460938 154.378906 286.703125 114.730469 C 287.3125 116.101563 287.71875 116.726563 287.867188 117.402344 C 293.132813 141.085938 298.34375 164.773438 303.660156 188.441406 C 304.191406 190.800781 303.6875 192.191406 301.78125 193.730469 C 286.597656 205.984375 271.519531 218.367188 256.402344 230.703125 C 255.691406 231.285156 254.925781 231.796875 254.1875 232.339844 C 253.945313 232.210938 253.703125 232.082031 253.460938 231.949219 "/>
</g>
<path style=" stroke:none;fill-rule:nonzero;fill:rgb(83.099365%,11.399841%,32.899475%);fill-opacity:1;" d="M 371.421875 81.28125 C 389.277344 78.054688 406.414063 74.960938 424.507813 71.695313 C 417.699219 90.269531 411.148438 108.144531 404.277344 126.898438 C 393.183594 111.492188 382.570313 96.761719 371.421875 81.28125 "/>
<path style=" stroke:none;fill-rule:nonzero;fill:rgb(88.198853%,7.099915%,43.099976%);fill-opacity:1;" d="M 319.9375 174.363281 C 346.363281 160.886719 372.789063 147.414063 399.210938 133.941406 C 399.425781 134.121094 399.636719 134.296875 399.851563 134.476563 C 398.855469 137.503906 397.9375 140.554688 396.808594 143.527344 C 396.566406 144.171875 395.644531 144.703125 394.917969 144.996094 C 370.265625 154.949219 345.601563 164.867188 320.9375 174.785156 C 320.746094 174.859375 320.523438 174.855469 320.316406 174.886719 C 320.191406 174.714844 320.0625 174.539063 319.9375 174.363281 "/>
<path style=" stroke:none;fill-rule:nonzero;fill:rgb(88.198853%,7.099915%,43.099976%);fill-opacity:1;" d="M 449.671875 94.800781 L 420.246094 94.800781 C 423.027344 87.214844 425.699219 79.929688 428.128906 73.3125 C 435.441406 80.179688 442.722656 87.015625 450 93.855469 C 449.890625 94.171875 449.78125 94.484375 449.671875 94.800781 "/>
<path style=" stroke:none;fill-rule:nonzero;fill:rgb(61.999512%,10.598755%,23.098755%);fill-opacity:1;" d="M 244.21875 62.550781 C 229.191406 48.324219 214.160156 34.101563 199.132813 19.871094 C 199.242188 19.59375 199.351563 19.3125 199.460938 19.035156 C 203.265625 19.035156 207.070313 18.980469 210.871094 19.09375 C 211.457031 19.109375 212.144531 19.796875 212.570313 20.34375 C 223.160156 33.898438 233.722656 47.472656 244.28125 61.054688 C 244.511719 61.351563 244.605469 61.757813 244.761719 62.113281 C 244.582031 62.257813 244.402344 62.40625 244.21875 62.550781 "/>
<path style=" stroke:none;fill-rule:nonzero;fill:rgb(92.498779%,0%,54.499817%);fill-opacity:1;" d="M 9.148438 129.128906 C 9.148438 130.234375 9.351563 131.339844 9.554688 132.347656 C 11.261719 138.480469 16.390625 142.703125 22.828125 142.703125 C 32.078125 142.703125 37.609375 135.160156 37.609375 124 C 37.609375 114.246094 32.582031 105.898438 23.128906 105.898438 C 17.09375 105.898438 11.464844 110.023438 9.652344 116.757813 C 9.453125 117.765625 9.148438 118.972656 9.148438 120.378906 Z M 0 148.636719 C 0.203125 145.316406 0.402344 140.390625 0.402344 136.066406 L 0.402344 77.238281 L 9.148438 77.238281 L 9.148438 107.808594 L 9.351563 107.808594 C 12.46875 102.378906 18.101563 98.859375 25.941406 98.859375 C 38.011719 98.859375 46.558594 108.914063 46.457031 123.695313 C 46.457031 141.09375 35.496094 149.742188 24.636719 149.742188 C 17.597656 149.742188 11.964844 147.027344 8.347656 140.589844 L 8.042969 140.589844 L 7.640625 148.636719 "/>
<path style=" stroke:none;fill-rule:nonzero;fill:rgb(13.299561%,11.799622%,12.199402%);fill-opacity:1;" d="M 57.917969 80.859375 L 66.664063 80.859375 L 66.664063 113.539063 L 66.96875 113.539063 C 68.777344 110.925781 70.589844 108.511719 72.296875 106.300781 L 93.011719 80.859375 L 103.871094 80.859375 L 79.335938 109.617188 L 105.78125 148.636719 L 95.425781 148.636719 L 73.101563 115.351563 L 66.664063 122.792969 L 66.664063 148.636719 L 57.917969 148.636719 "/>
<path style=" stroke:none;fill-rule:nonzero;fill:rgb(13.299561%,11.799622%,12.199402%);fill-opacity:1;" d="M 139.363281 123.800781 C 129.710938 123.597656 118.75 125.308594 118.75 134.757813 C 118.75 140.488281 122.574219 143.207031 127.097656 143.207031 C 133.433594 143.207031 137.453125 139.183594 138.863281 135.0625 C 139.164063 134.15625 139.363281 133.152344 139.363281 132.246094 Z M 140.671875 148.636719 L 139.96875 142.5 L 139.667969 142.5 C 136.953125 146.324219 131.722656 149.742188 124.785156 149.742188 C 114.929688 149.742188 109.902344 142.804688 109.902344 135.765625 C 109.902344 124 120.359375 117.5625 139.164063 117.664063 L 139.164063 116.660156 C 139.164063 112.636719 138.058594 105.398438 128.101563 105.398438 C 123.578125 105.398438 118.851563 106.804688 115.433594 109.015625 L 113.421875 103.183594 C 117.445313 100.570313 123.277344 98.859375 129.410156 98.859375 C 144.292969 98.859375 147.910156 109.015625 147.910156 118.769531 L 147.910156 136.972656 C 147.910156 141.195313 148.113281 145.316406 148.71875 148.636719 "/>
<path style=" stroke:none;fill-rule:nonzero;fill:rgb(13.299561%,11.799622%,12.199402%);fill-opacity:1;" d="M 160.984375 139.585938 C 163.597656 141.292969 168.222656 143.105469 172.648438 143.105469 C 179.082031 143.105469 182.101563 139.886719 182.101563 135.863281 C 182.101563 131.640625 179.585938 129.328125 173.050781 126.914063 C 164.300781 123.800781 160.179688 118.972656 160.179688 113.140625 C 160.179688 105.296875 166.511719 98.859375 176.972656 98.859375 C 181.898438 98.859375 186.222656 100.269531 188.9375 101.878906 L 186.726563 108.3125 C 184.816406 107.105469 181.296875 105.496094 176.769531 105.496094 C 171.539063 105.496094 168.625 108.515625 168.625 112.132813 C 168.625 116.15625 171.539063 117.964844 177.875 120.378906 C 186.324219 123.597656 190.648438 127.820313 190.648438 135.0625 C 190.648438 143.605469 184.011719 149.640625 172.445313 149.640625 C 167.117188 149.640625 162.191406 148.332031 158.769531 146.324219 "/>
<path style=" stroke:none;fill-rule:nonzero;fill:rgb(13.299561%,11.799622%,12.199402%);fill-opacity:1;" d="M 202.007813 77.238281 L 210.859375 77.238281 L 210.859375 107.609375 L 211.058594 107.609375 C 212.46875 105.09375 214.679688 102.882813 217.394531 101.375 C 220.007813 99.867188 223.125 98.859375 226.445313 98.859375 C 232.980469 98.859375 243.4375 102.882813 243.4375 119.675781 L 243.4375 148.636719 L 234.589844 148.636719 L 234.589844 120.679688 C 234.589844 112.835938 231.671875 106.199219 223.328125 106.199219 C 217.59375 106.199219 213.070313 110.222656 211.460938 115.050781 C 210.957031 116.257813 210.859375 117.5625 210.859375 119.273438 L 210.859375 148.636719 L 202.007813 148.636719 "/>
</g>
</svg>
